<?xml version="1.0" encoding="UTF-8" standalone="no"?>
<svg width="19px" height="20px" viewBox="0 0 19 20" version="1.1" xmlns="http://www.w3.org/2000/svg" xmlns:xlink="http://www.w3.org/1999/xlink" xmlns:sketch="http://www.bohemiancoding.com/sketch/ns">
    <!-- Generator: bin/sketchtool 1.4 (305) - http://www.bohemiancoding.com/sketch -->
    <title>mute icon</title>
    <desc>Created with bin/sketchtool.</desc>
    <defs></defs>
    <g id="Page-1" stroke="none" stroke-width="1" fill="none" fill-rule="evenodd" sketch:type="MSPage">
        <g id="landing-page" sketch:type="MSArtboardGroup" transform="translate(-600.000000, -613.000000)" fill="#FFFFFF">
            <g id="Video-player" sketch:type="MSLayerGroup" transform="translate(-50.000000, 73.000000)">
                <g id="volume-control" transform="translate(650.100000, 540.000000)" sketch:type="MSShapeGroup">
                    <g id="mute-icon">
                        <path d="M11.4548077,19.6335769 C11.5235,19.6971538 11.6126538,19.7307692 11.7032692,19.7307692 C11.7522308,19.7307692 11.8026538,19.7205385 11.8494231,19.7000769 C11.9824231,19.6423462 12.0686538,19.5108077 12.0686538,19.3653846 L12.0686538,8.64061538 L6.05734615,14.6307308 L11.4548077,19.6335769" id="Fill-1"></path>
                        <path d="M2.17111538,13.8846154 L3.15765385,13.8846154 L12.0686538,5.00576923 L12.0686538,1.12830769 C12.0686538,0.980692308 11.9795,0.846961538 11.8428462,0.790692308 C11.7069231,0.735153846 11.5505385,0.765115385 11.4453077,0.869615385 L4.97580769,7.30769231 L1.90146154,7.30769231 C1.00334615,7.30769231 0.376346154,8.05892308 0.376346154,9.14046154 L0.423846154,12.1373462 C0.423846154,13.1012308 1.20723077,13.8846154 2.17111538,13.8846154" id="Fill-2"></path>
                        <path d="M14.8251154,6.82173077 C14.6614231,6.70334615 14.4334231,6.73988462 14.3143077,6.90211538 C14.1959231,7.06580769 14.2317308,7.29380769 14.3954231,7.41292308 C15.1671154,7.97415385 16.0878846,8.93803846 16.0878846,10.3418462 C16.0878846,11.7478462 15.1671154,12.711 14.3954231,13.2715 C14.2317308,13.3898846 14.1959231,13.6186154 14.3143077,13.7815769 C14.3859231,13.8802308 14.497,13.9321154 14.6102692,13.9321154 C14.6848077,13.9321154 14.7593462,13.9101923 14.8243846,13.8634231 C16.1105385,12.9287692 16.8186538,11.6784231 16.8186538,10.3418462 C16.8186538,9.006 16.1105385,7.75638462 14.8251154,6.82173077" id="Fill-3"></path>
                        <path d="M18.1384231,0.774615385 L18.1376923,0.774615385 C17.9221154,0.558307692 17.5136154,0.612384615 17.2286154,0.895192308 L0.718346154,17.3477308 C0.434076923,17.6312692 0.377807692,18.0412308 0.594115385,18.2575385 C0.809692308,18.4745769 1.21965385,18.4197692 1.50465385,18.1355 L18.0134615,1.68442308 C18.2984615,1.40088462 18.354,0.990923077 18.1384231,0.774615385" id="Fill-4"></path>
                    </g>
                </g>
            </g>
        </g>
    </g>
</svg>