<?xml version="1.0" encoding="UTF-8" standalone="no"?>
<svg width="50px" height="50px" viewBox="0 0 50 50" version="1.1" xmlns="http://www.w3.org/2000/svg" xmlns:xlink="http://www.w3.org/1999/xlink" xmlns:sketch="http://www.bohemiancoding.com/sketch/ns">
    <!-- Generator: Sketch 3.3.2 (12043) - http://www.bohemiancoding.com/sketch -->
    <title>pause6</title>
    <desc>Created with Sketch.</desc>
    <defs></defs>
    <g id="Page-1" stroke="none" stroke-width="1" fill="none" fill-rule="evenodd" sketch:type="MSPage">
        <g id="landing-page-2" sketch:type="MSArtboardGroup" transform="translate(-805.000000, -347.000000)" fill="#FFFFFF">
            <g id="pause6" sketch:type="MSLayerGroup" transform="translate(805.000000, 347.000000)">
                <path d="M25,0 C11.19375,0 0,11.19375 0,25 C0,38.80625 11.19375,50 25,50 C38.80625,50 50,38.80625 50,25 C50,11.19375 38.80625,0 25,0 L25,0 Z M21.875,37.5 L15.625,37.5 L15.625,25 L15.625,12.5 L21.875,12.5 L21.875,37.5 L21.875,37.5 Z M34.375,37.5 L28.125,37.5 L28.125,25 L28.125,12.5 L34.375,12.5 L34.375,37.5 L34.375,37.5 Z" id="Shape" sketch:type="MSShapeGroup"></path>
            </g>
        </g>
    </g>
</svg>