<?xml version="1.0" encoding="UTF-8" standalone="no"?>
<svg width="20px" height="17px" viewBox="0 0 20 17" version="1.1" xmlns="http://www.w3.org/2000/svg" xmlns:xlink="http://www.w3.org/1999/xlink" xmlns:sketch="http://www.bohemiancoding.com/sketch/ns">
    <!-- Generator: bin/sketchtool 1.4 (305) - http://www.bohemiancoding.com/sketch -->
    <title>sound icon</title>
    <desc>Created with bin/sketchtool.</desc>
    <defs></defs>
    <g id="Page-1" stroke="none" stroke-width="1" fill="none" fill-rule="evenodd" sketch:type="MSPage">
        <g id="landing-page" sketch:type="MSArtboardGroup" transform="translate(-880.000000, -615.000000)" fill="#FFFFFF">
            <g id="Video-player" sketch:type="MSLayerGroup" transform="translate(-50.000000, 73.000000)">
                <g id="volume-control" transform="translate(650.100000, 540.000000)" sketch:type="MSShapeGroup">
                    <g id="sound-icon" transform="translate(280.000000, 2.000000)">
                        <path d="M16.4070968,1.73548387 C16.2722581,1.61806452 16.0690323,1.6316129 15.9516129,1.76516129 C15.8341935,1.89935484 15.8477419,2.10387097 15.9819355,2.22064516 C17.7212903,3.74129032 18.7187097,6.02451613 18.7187097,8.48516129 C18.7187097,10.9464516 17.7212903,13.2296774 15.9819355,14.7503226 C15.8477419,14.8677419 15.8341935,15.0709677 15.9516129,15.2051613 C16.0154839,15.2787097 16.1045161,15.3154839 16.1948387,15.3154839 C16.2696774,15.3154839 16.3458065,15.2896774 16.4070968,15.236129 C18.2864516,13.5922581 19.3645161,11.1322581 19.3645161,8.48516129 C19.3645161,5.83870968 18.2864516,3.37741935 16.4070968,1.73548387" id="Fill-1"></path>
                        <path d="M14.3664516,3.35548387 C14.2290323,3.24258065 14.0251613,3.26258065 13.9122581,3.39935484 C13.7987097,3.53612903 13.8180645,3.74 13.9554839,3.85354839 C15.3664516,5.01806452 16.2787097,6.83677419 16.2787097,8.48516129 C16.2787097,10.1309677 15.3664516,11.9496774 13.9554839,13.1174194 C13.8180645,13.2316129 13.7987097,13.4341935 13.9122581,13.5716129 C13.976129,13.6490323 14.0683871,13.6890323 14.1606452,13.6890323 C14.2335484,13.6890323 14.3064516,13.6645161 14.3664516,13.6148387 C15.92,12.3283871 16.923871,10.3148387 16.923871,8.48516129 C16.923871,6.6516129 15.92,4.63870968 14.3664516,3.35548387" id="Fill-2"></path>
                        <path d="M12.7232258,5.37741935 C12.5793548,5.27290323 12.3774194,5.30516129 12.2729032,5.4483871 C12.1683871,5.59290323 12.2,5.79419355 12.3445161,5.89935484 C13.0258065,6.39483871 13.8380645,7.24580645 13.8380645,8.48516129 C13.8380645,9.72580645 13.0258065,10.5767742 12.3445161,11.0716129 C12.2,11.176129 12.1683871,11.3780645 12.2729032,11.5219355 C12.336129,11.6090323 12.4341935,11.6548387 12.5341935,11.6548387 C12.6,11.6548387 12.6664516,11.6348387 12.7232258,11.5935484 C13.8580645,10.7690323 14.4832258,9.66516129 14.4832258,8.48516129 C14.4832258,7.30645161 13.8580645,6.20258065 12.7232258,5.37741935" id="Fill-3"></path>
                        <path d="M10.1329032,0.0529032258 C10.0129032,0.00387096774 9.87483871,0.0303225806 9.78129032,0.122580645 L4.06967742,5.80645161 L1.35548387,5.80645161 C0.563225806,5.80645161 0.00967741935,6.46967742 0.00967741935,7.42451613 L0.0516129032,10.0703226 C0.0516129032,10.9212903 0.743225806,11.6129032 1.59419355,11.6129032 L4.31483871,11.6129032 L9.79032258,16.6883871 C9.85096774,16.7445161 9.92967742,16.7741935 10.0090323,16.7741935 C10.0529032,16.7741935 10.0967742,16.7651613 10.1387097,16.7470968 C10.2554839,16.696129 10.3322581,16.58 10.3322581,16.4516129 L10.3322581,0.350967742 C10.3322581,0.220645161 10.2535484,0.102580645 10.1329032,0.0529032258" id="Fill-4"></path>
                    </g>
                </g>
            </g>
        </g>
    </g>
</svg>